PathFileType	4	(X/Y/Z)	C:/Users/beibeiliu/ov580/test_trc/User2\sequence.11_training_dense_left.trc
DataRate	CameraRate	NumFrames	NumMarkers	Units	OrigDataRate	OrigDataStartFrame	OrigNumFrames
120	120	8	19	mm	120	321	366
Frame#	Time	ThumbCMC			ThumbMCP			ThumbIP			ThumbTip			IndexMCP			IndexPIP			IndexTip			MiddleMCP			MiddlePIP			MiddleTip			RingMCP			RingPIP			RingTip			PinkyMCP			PinkyPIP			PinkyTip			BackHand1			BackHand2			BackHand3	
		X0	Y0	Z0	X1	Y1	Z1	X2	Y2	Z2	X3	Y3	Z3	X4	Y4	Z4	X5	Y5	Z5	X6	Y6	Z6	X7	Y7	Z7	X8	Y8	Z8	X9	Y9	Z9	X10	Y10	Z10	X11	Y11	Z11	X12	Y12	Z12	X13	Y13	Z13	X14	Y14	Z14	X15	Y15	Z15	X16	Y16	Z16	X17	Y17	Z17	X18	Y18	Z18	
320	2.66667	-129.635	11.2501	132.04	-111.497	11.8542	98.2293	-102.175	12.1596	64.6397	-108.555	10.4554	37.2765	-171.418	63.3402	86.7841	-170.7	86.4922	65.5808	-170.457	100.759	35.5247	-201.32	56.9706	83.868	-209.609	81.0878	56.0211	-218.308	87.4098	24.7391	-217.937	39.9844	81.6617	-229.886	53.4494	58.5622	-233.599	63.2728	26.7338	-224.297	8.28182	86.1305	-235.995	21.8813	62.4828	-248.168	30.8159	37.4638	-205.584	11.1117	124.287	-196.645	-0.867604	155.086	-170.3	23.7176	143.028	
321	2.675	-132.432	14.1934	126.05	-110.537	11.6943	96.8853	-104.995	12.0458	63.1507	-111.553	8.67387	33.8678	-179.957	63.7302	83.0755	-180.192	82.8993	65.6196	-186.785	98.1323	35.6066	-206.526	57.2806	84.0077	-219.276	72.2855	60.7324	-228.022	83.0124	27.3201	-219.782	33.9041	86.3872	-233.758	49.094	61.6314	-240.577	57.3476	32.8891	-223.633	3.53798	89.4998	-243.464	14.2077	65.5669	-254.07	25.0496	42.9277	-203.95	6.72472	126.547	-193.97	-2.23479	157.6	-173.414	24.2274	142.168	
322	2.68333	-130.886	11.3274	127.168	-116.567	12.053	91.3925	-108.452	11.7465	58.3038	-121.251	7.00648	30.8233	-187.143	60.9947	82.2589	-193.304	77.9944	65.0127	-200.458	90.5436	38.8023	-210.485	53.0405	85.2125	-228.85	66.7317	62.0334	-236.982	79.9037	27.5301	-227.198	27.2034	87.4549	-240.937	41.9314	65.8398	-247.078	50.4471	38.0101	-229.376	0.9605	89.9625	-249.744	7.52888	68.4086	-257.107	17.9941	49.0531	-201.693	4.02281	127.243	-193.567	-6.5522	155.331	-175.992	22.3049	136.516	
323	2.69167	-130.617	10.7437	120.97	-118.13	7.23649	90.7038	-114.864	6.00426	57.5823	-124.12	2.18886	30.0548	-187.608	57.6874	84.193	-191.939	78.2341	67.0476	-204.196	92.6532	38.5861	-213.251	49.7848	86.8513	-229.883	69.0337	63.3123	-242.544	78.5773	29.802	-228.791	30.2449	88.1038	-246.246	39.8181	68.8608	-255.805	49.0547	38.9807	-231.419	-1.48381	92.3952	-251.885	8.38039	73.0556	-265.784	17.7175	51.2217	-206.929	-0.0619001	130.697	-194.279	-7.89926	153.69	-171.494	22.3312	136.52	
324	2.7	-131.216	3.65615	118.477	-121.989	-0.421205	87.7269	-117.098	0.853444	51.0748	-126.534	-3.86919	27.376	-185.228	53.9489	85.4969	-193.305	76.4183	66.389	-200.161	91.8771	41.9678	-211.707	47.575	90.2186	-230.654	67.9402	68.6555	-242.858	78.0135	38.3616	-227.055	31.0892	89.8898	-243.336	44.1127	72.5189	-256.253	53.0667	41.8316	-231.346	-0.937007	95.7335	-255.489	10.0767	76.1371	-265.247	22.8601	54.648	-208.081	0.888479	129.71	-194.745	-10.9104	155.979	-172.648	16.5669	138.782	
325	2.70833	-130.151	-3.26077	116.362	-118.712	-7.06425	82.904	-120.091	-5.74822	46.8705	-131.458	-9.93301	24.1927	-179.862	50.9803	85.0219	-184.34	75.5008	65.5862	-191.721	90.6086	42.803	-208.576	50.6285	90.1202	-224.674	70.9118	69.688	-234.056	83.8194	38.8887	-226.265	29.4876	93.984	-244.302	48.6071	72.6516	-251.133	58.8156	46.0154	-233.303	2.22267	97.9405	-255.041	17.6785	78.8339	-266.956	28.0941	58.0079	-205.526	2.02684	127.921	-195.28	-11.6734	152.91	-167.603	12.9444	135.239	
326	2.71667	-134.286	-13.1444	115.476	-121.653	-15.1483	80.7677	-122.11	-16.2011	49.746	-135.561	-15.0587	22.257	-174.216	48.9886	84.8207	-177.086	75.78	63.3838	-180.433	89.5649	39.0299	-202.362	48.7714	91.0739	-219.37	73.9929	67.7732	-225.349	86.6221	41.0336	-221.361	32.6822	94.1688	-237.508	50.0765	75.0461	-244.346	62.7985	46.4268	-235.367	6.76278	97.6817	-255.884	20.6761	81.5608	-265.883	34.1526	64.5786	-207.348	1.32447	127.983	-194.823	-11.4	154.438	-168.375	8.33914	135.53	
327	2.725	-135.744	-19.1133	113.408	-122.824	-23.4876	80.5991	-127.417	-21.1096	44.5865	-138.613	-21.0261	21.5093	-171.657	43.7792	84.6077	-175.268	69.0132	62.9846	-177.458	82.9043	39.112	-200.065	49.1704	89.3135	-215.108	72.5294	67.0253	-224.161	85.0476	38.4702	-223.551	32.5693	93.5071	-236.368	51.0935	76.2886	-244.555	63.4492	45.0075	-234.861	6.31053	98.8801	-255.332	19.46	86.0379	-268.175	34.7313	63.3058	-206.312	-2.76826	128.896	-194.158	-17.5532	155.302	-168.488	3.98624	134.213	
